<svg xmlns="http://www.w3.org/2000/svg" xmlns:xlink="http://www.w3.org/1999/xlink" contentStyleType="text/css" height="1051px" preserveAspectRatio="none" style="width:854px;height:1051px;background:#FFFFFF;" version="1.1" viewBox="0 0 854 1051" width="854px" zoomAndPan="magnify"><defs/><g><text fill="#000000" font-family="sans-serif" font-size="14" font-weight="bold" lengthAdjust="spacing" textLength="347" x="246.5" y="22.9951">8-bit CPU Architecture (Intel 8085 Inspired )</text><!--entity PC--><g id="elem_PC"><rect fill="#F1F1F1" height="52.5938" rx="2.5" ry="2.5" style="stroke:#181818;stroke-width:0.5;" width="70" x="119" y="44.2969"/><text fill="#000000" font-family="sans-serif" font-size="14" lengthAdjust="spacing" textLength="19" x="144.5" y="67.292">PC</text><text fill="#000000" font-family="sans-serif" font-size="14" lengthAdjust="spacing" textLength="50" x="129" y="83.5889">[16-bit]</text></g><!--entity MAR--><g id="elem_MAR"><rect fill="#F1F1F1" height="52.5938" rx="2.5" ry="2.5" style="stroke:#181818;stroke-width:0.5;" width="70" x="119" y="156.8869"/><text fill="#000000" font-family="sans-serif" font-size="14" lengthAdjust="spacing" textLength="31" x="138.5" y="179.882">MAR</text><text fill="#000000" font-family="sans-serif" font-size="14" lengthAdjust="spacing" textLength="50" x="129" y="196.1789">[16-bit]</text></g><!--entity MBR--><g id="elem_MBR"><rect fill="#F1F1F1" height="52.5938" rx="2.5" ry="2.5" style="stroke:#181818;stroke-width:0.5;" width="61" x="265.5" y="269.4869"/><text fill="#000000" font-family="sans-serif" font-size="14" lengthAdjust="spacing" textLength="32" x="280" y="292.482">MBR</text><text fill="#000000" font-family="sans-serif" font-size="14" lengthAdjust="spacing" textLength="41" x="275.5" y="308.7789">[8-bit]</text></g><!--entity IR--><g id="elem_IR"><rect fill="#F1F1F1" height="52.5938" rx="2.5" ry="2.5" style="stroke:#181818;stroke-width:0.5;" width="61" x="785.5" y="896.1569"/><text fill="#000000" font-family="sans-serif" font-size="14" lengthAdjust="spacing" textLength="13" x="809.5" y="919.152">IR</text><text fill="#000000" font-family="sans-serif" font-size="14" lengthAdjust="spacing" textLength="41" x="795.5" y="935.4489">[8-bit]</text></g><!--entity FLAGS--><g id="elem_FLAGS"><rect fill="#F1F1F1" height="52.5938" rx="2.5" ry="2.5" style="stroke:#181818;stroke-width:0.5;" width="64" x="784" y="687.2669"/><text fill="#000000" font-family="sans-serif" font-size="14" lengthAdjust="spacing" textLength="44" x="794" y="710.262">FLAGS</text><text fill="#000000" font-family="sans-serif" font-size="14" lengthAdjust="spacing" textLength="41" x="795.5" y="726.5589">[8-bit]</text></g><!--entity TEMP--><g id="elem_TEMP"><rect fill="#F1F1F1" height="52.5938" rx="2.5" ry="2.5" style="stroke:#181818;stroke-width:0.5;" width="61" x="395.5" y="382.0769"/><text fill="#000000" font-family="sans-serif" font-size="14" lengthAdjust="spacing" textLength="39" x="406.5" y="405.072">TEMP</text><text fill="#000000" font-family="sans-serif" font-size="14" lengthAdjust="spacing" textLength="41" x="405.5" y="421.3689">[8-bit]</text></g><!--entity CU--><g id="elem_CU"><rect fill="#F1F1F1" height="36.2969" rx="2.5" ry="2.5" style="stroke:#181818;stroke-width:0.5;" width="101" x="286.5" y="799.8569"/><text fill="#000000" font-family="sans-serif" font-size="14" lengthAdjust="spacing" textLength="81" x="296.5" y="822.852">Control Unit</text></g><!--entity DEC--><g id="elem_DEC"><rect fill="#F1F1F1" height="36.2969" rx="2.5" ry="2.5" style="stroke:#181818;stroke-width:0.5;" width="80" x="492" y="1008.7469"/><text fill="#000000" font-family="sans-serif" font-size="14" lengthAdjust="spacing" textLength="60" x="502" y="1031.742">Decoder</text></g><!--entity REG--><g id="elem_REG"><rect fill="#F1F1F1" height="36.2969" rx="2.5" ry="2.5" style="stroke:#181818;stroke-width:0.5;" width="105" x="419.5" y="494.6769"/><text fill="#000000" font-family="sans-serif" font-size="14" lengthAdjust="spacing" textLength="85" x="429.5" y="517.672">Register File</text></g><!--entity ALU--><g id="elem_ALU"><rect fill="#F1F1F1" height="36.2969" rx="2.5" ry="2.5" style="stroke:#181818;stroke-width:0.5;" width="46" x="358" y="590.9669"/><text fill="#000000" font-family="sans-serif" font-size="14" lengthAdjust="spacing" textLength="26" x="368" y="613.962">ALU</text></g><!--entity MEM--><g id="elem_MEM"><rect fill="#F1F1F1" height="36.2969" rx="2.5" ry="2.5" style="stroke:#181818;stroke-width:0.5;" width="75" x="191.5" y="904.3069"/><text fill="#000000" font-family="sans-serif" font-size="14" lengthAdjust="spacing" textLength="55" x="201.5" y="927.302">Memory</text></g><g id="elem_GMN40"><path d="M223.5,58.0269 L223.5,67.0469 L189.47,71.0469 L223.5,75.0469 L223.5,83.1597 A0,0 0 0 0 223.5,83.1597 L354.5,83.1597 A0,0 0 0 0 354.5,83.1597 L354.5,68.0269 L344.5,58.0269 L223.5,58.0269 A0,0 0 0 0 223.5,58.0269 " fill="#FEFFDD" style="stroke:#181818;stroke-width:0.5;"/><path d="M344.5,58.0269 L344.5,68.0269 L354.5,68.0269 L344.5,58.0269 " fill="#FEFFDD" style="stroke:#181818;stroke-width:0.5;"/><text fill="#000000" font-family="sans-serif" font-size="13" lengthAdjust="spacing" textLength="110" x="229.5" y="75.0938">Program Counter</text></g><g id="elem_GMN43"><path d="M491,395.8069 L491,404.0469 L456.71,408.0469 L491,412.0469 L491,420.9397 A0,0 0 0 0 491,420.9397 L733,420.9397 A0,0 0 0 0 733,420.9397 L733,405.8069 L723,395.8069 L491,395.8069 A0,0 0 0 0 491,395.8069 " fill="#FEFFDD" style="stroke:#181818;stroke-width:0.5;"/><path d="M723,395.8069 L723,405.8069 L733,405.8069 L723,395.8069 " fill="#FEFFDD" style="stroke:#181818;stroke-width:0.5;"/><text fill="#000000" font-family="sans-serif" font-size="13" lengthAdjust="spacing" textLength="221" x="497" y="412.8738">ALU result / immediate / mem_out</text></g><g id="elem_GMN46"><path d="M559.5,500.2569 L559.5,509.0469 L524.94,513.0469 L559.5,517.0469 L559.5,525.3897 A0,0 0 0 0 559.5,525.3897 L826.5,525.3897 A0,0 0 0 0 826.5,525.3897 L826.5,510.2569 L816.5,500.2569 L559.5,500.2569 A0,0 0 0 0 559.5,500.2569 " fill="#FEFFDD" style="stroke:#181818;stroke-width:0.5;"/><path d="M816.5,500.2569 L816.5,510.2569 L826.5,510.2569 L816.5,500.2569 " fill="#FEFFDD" style="stroke:#181818;stroke-width:0.5;"/><text fill="#000000" font-family="sans-serif" font-size="13" lengthAdjust="spacing" textLength="246" x="565.5" y="517.3238">8 registers:read_addr1 &amp; 2, write_addr</text></g><g id="elem_GMN49"><path d="M406.5,909.8869 L406.5,914.0469 L266.95,918.0469 L406.5,922.0469 L406.5,935.0197 A0,0 0 0 0 406.5,935.0197 L675.5,935.0197 A0,0 0 0 0 675.5,935.0197 L675.5,919.8869 L665.5,909.8869 L406.5,909.8869 A0,0 0 0 0 406.5,909.8869 " fill="#FEFFDD" style="stroke:#181818;stroke-width:0.5;"/><path d="M665.5,909.8869 L665.5,919.8869 L675.5,919.8869 L665.5,909.8869 " fill="#FEFFDD" style="stroke:#181818;stroke-width:0.5;"/><text fill="#000000" font-family="sans-serif" font-size="13" lengthAdjust="spacing" textLength="248" x="412.5" y="926.9538">Unified Memory: 8-bit data, 16-bit addr</text></g><!--link PC to CU--><g id="link_PC_CU"><path d="M189.49,90.0469 C242.41,90.0469 335.83,90.0469 335.83,90.0469 C335.83,90.0469 335.83,680.6269 335.83,793.6469 " fill="none" id="PC-to-CU" style="stroke:#181818;stroke-width:1.0;"/><polygon fill="#181818" points="335.83,799.6469,339.83,790.6469,335.83,794.6469,331.83,790.6469,335.83,799.6469" style="stroke:#181818;stroke-width:1.0;"/><text fill="#000000" font-family="sans-serif" font-size="13" lengthAdjust="spacing" textLength="4" x="190.83" y="352.7438">&#160;</text><text fill="#000000" font-family="sans-serif" font-size="13" lengthAdjust="spacing" textLength="4" x="222.83" y="352.7438">&#160;</text><text fill="#000000" font-family="sans-serif" font-size="13" lengthAdjust="spacing" textLength="44" x="290.83" y="352.7438">pc_inc,</text><text fill="#000000" font-family="sans-serif" font-size="13" lengthAdjust="spacing" textLength="79" x="191.33" y="367.8766">branch_type</text></g><!--link FLAGS to CU--><g id="link_FLAGS_CU"><path d="M783.77,722.0469 C682.54,722.0469 377.67,722.0469 377.67,722.0469 C377.67,722.0469 377.67,765.6169 377.67,793.5069 " fill="none" id="FLAGS-to-CU" style="stroke:#181818;stroke-width:1.0;"/><polygon fill="#181818" points="377.67,799.5069,381.67,790.5069,377.67,794.5069,373.67,790.5069,377.67,799.5069" style="stroke:#181818;stroke-width:1.0;"/></g><!--link IR to DEC--><g id="link_IR_DEC"><path d="M785.07,945.0469 C711.46,945.0469 532,945.0469 532,945.0469 C532,945.0469 532,978.1769 532,1002.3269 " fill="none" id="IR-to-DEC" style="stroke:#181818;stroke-width:1.0;"/><polygon fill="#181818" points="532,1008.3269,536,999.3269,532,1003.3269,528,999.3269,532,1008.3269" style="stroke:#181818;stroke-width:1.0;"/></g><!--link DEC to CU--><g id="link_DEC_CU"><path d="M491.66,1027.0469 C430.2,1027.0469 320.17,1027.0469 320.17,1027.0469 C320.17,1027.0469 320.17,893.7169 320.17,842.5569 " fill="none" id="DEC-to-CU" style="stroke:#181818;stroke-width:1.0;"/><polygon fill="#181818" points="320.17,836.5569,316.17,845.5569,320.17,841.5569,324.17,845.5569,320.17,836.5569" style="stroke:#181818;stroke-width:1.0;"/><text fill="#000000" font-family="sans-serif" font-size="13" lengthAdjust="spacing" textLength="68" x="212.17" y="998.6138">ctrl signals</text><text fill="#000000" font-family="sans-serif" font-size="13" lengthAdjust="spacing" textLength="146" x="173.17" y="1013.7466">(alu_op, reg_write, etc)</text></g><!--link CU to DEC--><!--link CU to REG--><g id="link_CU_REG"><path d="M345.17,799.6069 C345.17,733.0969 345.17,509.0469 345.17,509.0469 C345.17,509.0469 378.47,509.0469 413.31,509.0469 " fill="none" id="CU-to-REG" style="stroke:#181818;stroke-width:1.0;"/><polygon fill="#181818" points="419.31,509.0469,410.31,505.0469,414.31,509.0469,410.31,513.0469,419.31,509.0469" style="stroke:#181818;stroke-width:1.0;"/><text fill="#000000" font-family="sans-serif" font-size="13" lengthAdjust="spacing" textLength="58" x="286.17" y="613.3238">reg_write</text></g><!--link CU to ALU--><g id="link_CU_ALU"><path d="M367.83,799.4669 C367.83,759.8269 367.83,673.2169 367.83,633.6169 " fill="none" id="CU-to-ALU" style="stroke:#181818;stroke-width:1.0;"/><polygon fill="#181818" points="367.83,627.6169,363.83,636.6169,367.83,632.6169,371.83,636.6169,367.83,627.6169" style="stroke:#181818;stroke-width:1.0;"/><text fill="#000000" font-family="sans-serif" font-size="13" lengthAdjust="spacing" textLength="69" x="297.83" y="709.6038">alu_enable</text></g><!--link CU to MEM--><g id="link_CU_MEM"><path d="M286.28,824.0469 C267.87,824.0469 251.5,824.0469 251.5,824.0469 C251.5,824.0469 251.5,869.4369 251.5,897.9469 " fill="none" id="CU-to-MEM" style="stroke:#181818;stroke-width:1.0;"/><polygon fill="#181818" points="251.5,903.9469,255.5,894.9469,251.5,898.9469,247.5,894.9469,251.5,903.9469" style="stroke:#181818;stroke-width:1.0;"/><text fill="#000000" font-family="sans-serif" font-size="13" lengthAdjust="spacing" textLength="153" x="97.5" y="842.6738">mem_read / mem_write</text></g><!--link CU to IR--><g id="link_CU_IR"><path d="M387.96,818.0469 C508.43,818.0469 800.75,818.0469 800.75,818.0469 C800.75,818.0469 800.75,858.9069 800.75,889.8369 " fill="none" id="CU-to-IR" style="stroke:#181818;stroke-width:1.0;"/><polygon fill="#181818" points="800.75,895.8369,804.75,886.8369,800.75,890.8369,796.75,886.8369,800.75,895.8369" style="stroke:#181818;stroke-width:1.0;"/><text fill="#000000" font-family="sans-serif" font-size="13" lengthAdjust="spacing" textLength="42" x="590.25" y="814.1138">ir_load</text></g><!--link CU to MAR--><g id="link_CU_MAR"><path d="M286.02,812.0469 C231.88,812.0469 154,812.0469 154,812.0469 C154,812.0469 154,335.4969 154,215.8069 " fill="none" id="CU-to-MAR" style="stroke:#181818;stroke-width:1.0;"/><polygon fill="#181818" points="154,209.8069,150,218.8069,154,214.8069,158,218.8069,154,209.8069" style="stroke:#181818;stroke-width:1.0;"/><text fill="#000000" font-family="sans-serif" font-size="13" lengthAdjust="spacing" textLength="146" x="7" y="573.0038">mar_load / mar_sel_wz</text></g><!--link CU to MBR--><g id="link_CU_MBR"><path d="M299.83,799.4169 C299.83,720.7469 299.83,420.9369 299.83,328.4369 " fill="none" id="CU-to-MBR" style="stroke:#181818;stroke-width:1.0;"/><polygon fill="#181818" points="299.83,322.4369,295.83,331.4369,299.83,327.4369,303.83,331.4369,299.83,322.4369" style="stroke:#181818;stroke-width:1.0;"/><text fill="#000000" font-family="sans-serif" font-size="13" lengthAdjust="spacing" textLength="70" x="228.83" y="556.9938">mem_read</text></g><!--link REG to ALU--><g id="link_REG_ALU"><path d="M419.11,516.0469 C408.09,516.0469 399.75,516.0469 399.75,516.0469 C399.75,516.0469 399.75,557.6069 399.75,584.7269 " fill="none" id="REG-to-ALU" style="stroke:#181818;stroke-width:1.0;"/><polygon fill="#181818" points="399.75,590.7269,403.75,581.7269,399.75,585.7269,395.75,581.7269,399.75,590.7269" style="stroke:#181818;stroke-width:1.0;"/><text fill="#000000" font-family="sans-serif" font-size="13" lengthAdjust="spacing" textLength="27" x="357.75" y="556.7738">Acc,</text><text fill="#000000" font-family="sans-serif" font-size="13" lengthAdjust="spacing" textLength="55" x="343.75" y="571.9066">Operand</text></g><!--link REG to ALU--><!--link ALU to TEMP--><g id="link_ALU_TEMP"><path d="M397.63,590.5869 C397.63,554.8769 397.63,482.3669 397.63,441.0369 " fill="none" id="ALU-to-TEMP" style="stroke:#181818;stroke-width:1.0;"/><polygon fill="#181818" points="397.63,435.0369,393.63,444.0369,397.63,440.0369,401.63,444.0369,397.63,435.0369" style="stroke:#181818;stroke-width:1.0;"/><text fill="#000000" font-family="sans-serif" font-size="13" lengthAdjust="spacing" textLength="36" x="360.63" y="508.8738">result</text></g><!--link ALU to FLAGS--><g id="link_ALU_FLAGS"><path d="M395.75,627.6169 C395.75,655.4869 395.75,705.0469 395.75,705.0469 C395.75,705.0469 679.31,705.0469 777.72,705.0469 " fill="none" id="ALU-to-FLAGS" style="stroke:#181818;stroke-width:1.0;"/><polygon fill="#181818" points="783.72,705.0469,774.72,701.0469,778.72,705.0469,774.72,709.0469,783.72,705.0469" style="stroke:#181818;stroke-width:1.0;"/><text fill="#000000" font-family="sans-serif" font-size="13" lengthAdjust="spacing" textLength="30" x="520.02" y="701.1138">flags</text></g><!--link TEMP to REG--><g id="link_TEMP_REG"><path d="M438,434.9969 C438,453.6169 438,471.9969 438,488.4669 " fill="none" id="TEMP-to-REG" style="stroke:#181818;stroke-width:1.0;"/><polygon fill="#181818" points="438,494.4669,442,485.4669,438,489.4669,434,485.4669,438,494.4669" style="stroke:#181818;stroke-width:1.0;"/><text fill="#000000" font-family="sans-serif" font-size="13" lengthAdjust="spacing" textLength="47" x="390" y="460.8038">data_in</text></g><!--link MEM to MBR--><g id="link_MEM_MBR"><path d="M266.95,927.0469 C269.75,927.0469 271.5,927.0469 271.5,927.0469 C271.5,927.0469 271.5,448.6569 271.5,328.5069 " fill="none" id="MEM-to-MBR" style="stroke:#181818;stroke-width:1.0;"/><polygon fill="#181818" points="271.5,322.5069,267.5,331.5069,271.5,327.5069,275.5,331.5069,271.5,322.5069" style="stroke:#181818;stroke-width:1.0;"/><text fill="#000000" font-family="sans-serif" font-size="13" lengthAdjust="spacing" textLength="62" x="208.5" y="623.1138">mem_out</text></g><!--link MBR to TEMP--><g id="link_MBR_TEMP"><path d="M313.17,322.3869 C313.17,355.5869 313.17,408.0469 313.17,408.0469 C313.17,408.0469 355.76,408.0469 389.17,408.0469 " fill="none" id="MBR-to-TEMP" style="stroke:#181818;stroke-width:1.0;"/><polygon fill="#181818" points="395.17,408.0469,386.17,404.0469,390.17,408.0469,386.17,412.0469,395.17,408.0469" style="stroke:#181818;stroke-width:1.0;"/><text fill="#000000" font-family="sans-serif" font-size="13" lengthAdjust="spacing" textLength="81" x="231.17" y="402.2838">if mem_read</text></g><!--link PC to MAR--><!--link PC to MAR--><g id="link_PC_MAR"><path d="M165.67,97.2769 C165.67,115.2269 165.67,132.7869 165.67,150.6969 " fill="none" id="PC-to-MAR-1" style="stroke:#FFFFFF;stroke-width:1.0;stroke-dasharray:7.0,7.0;"/><polygon fill="#FFFFFF" points="165.67,156.6969,169.67,147.6969,165.67,151.6969,161.67,147.6969,165.67,156.6969" style="stroke:#FFFFFF;stroke-width:1.0;"/></g><!--link MAR to MBR--><!--link MBR to IR--><!--link IR to FLAGS--><!--link IR to FLAGS--><g id="link_IR_FLAGS"><path d="M831.25,895.9969 C831.25,855.9269 831.25,786.2669 831.25,746.1369 " fill="none" id="IR-to-FLAGS-1" style="stroke:#FFFFFF;stroke-width:1.0;stroke-dasharray:7.0,7.0;"/><polygon fill="#FFFFFF" points="831.25,740.1369,827.25,749.1369,831.25,745.1369,835.25,749.1369,831.25,740.1369" style="stroke:#FFFFFF;stroke-width:1.0;"/></g><!--link FLAGS to TEMP--><!--link DEC to REG--><!--link ALU to MEM--><!--SRC=[TLLjQzim4FxkNt5ii7MGqdMm4G8R96vQ0iqMqkPJKunYAOweB1b99aj__UxaEfNIDUJ5kUVqI7VttCazITqmoseeJTqOBRI_ymSbm8hICrqfaRcZ2nTRrYf_B_xwiPALhj4RIlmIDl9IKWj_Q0GOwtScoxpqo3SytqWF-M85Orlkf4VwrWeuc-5g1SElm-ymqwwHLd3uacMVuTuqOCr-14jHIOTREFW4jQYDFU1PjRT6PST3meT5ljOFbpzebySFm1miyXYUZvSdE5eIXmav32Dyak2p4tYMeDUtuvkxr26OOf_xwNoHkf25GfrBpYdb56tUXOQnNedISCniHD63AorzOCXNCVoo8Y1Nqvoe9yPxKtVKrwqklJIQAMYHmCLB-oJ3jLGY42odDx73-7OLpFYRf2qKf4lOT4ux_enUSCiEflKKb1PXRvVWvFzQNcyW3Z1Rv73EpLwV_y8uOGHhl_OGtlZLb8NKvM2jDvRfSbUGuhAGysWHyS-MHDmd4__rC6K8F-aUfRSA76gRARVMPqorXMa6s0rLiRUesW48NmPznaVj1Uao9EdvC858U5mPGvX4X8XSQBPH2OPfH0o5NbZ1E5o4npSC6CS8f2sKOJnPFIQWPXr2g_7H2LNidnEtoJBQ92v3401bZ0fD8QHd7fUKyp-DmAo7TMJ64ZSjwecUUtVITWZVuSH8aAv88zWgLhai-AKfuympB6xeZAxV9OqO5WIKKNxUXe57oEZVoVPocmIPQFEkOQNK5RoEibDf1WGsofHF3dR6ocSiCrFg4AJviCEs5Vgnotf6cKziE3_2YI8R3erPQkccn8jk8tit6i8s7_SqBWUSkPtW_Mw1vWtIiOL2Hrn7eKSswkvGtSX65G-5YgFuJrF_DbwSzh566rXPxJoOBSrUW8Kr5Tq7kMd33I4q1t8xTGwXGX1IfnPKhQnhmIL3jujZUTzRJw403AdJka4oed8NZ7DxYMFqsm12zmJ3koGK9r0lRoLUG9tiHY-N5kbn0DtT0GdBFm00]--></g></svg>